<?xml version="1.0" encoding="UTF-8"?>
<svg id="Layer_1" data-name="Layer 1" xmlns="http://www.w3.org/2000/svg" version="1.1" viewBox="0 0 1000 1000">
  <defs>
    <style>
      .cls-1 {
        fill: #ff0037;
        stroke-width: 0px;
      }
    </style>
  </defs>
  <path class="cls-1" d="M659.19,398.42c0-74.8-61.09-135.48-136.41-135.48h-45.45c-75.32,0-136.41,60.63-136.41,135.48v22.6h-11.35c-43.94-.05-79.56,35.32-79.56,78.96v56.42c0,43.64,35.61,79.01,79.56,79.01h56.81v-45.14h-56.81c-18.85,0-34.1-15.14-34.1-33.87v-56.42c0-18.73,15.25-33.87,34.1-33.87h56.81v-67.74c0-49.88,40.73-90.29,90.91-90.29h45.45c50.23,0,90.91,40.45,90.91,90.29v45.14h45.45c25.09,0,45.45,20.22,45.45,45.14v56.42c0,24.92-20.36,45.14-45.45,45.14h-45.45v45.14h45.45c50.23,0,90.91-40.45,90.91-90.29v-56.42c0-49.88-40.73-90.29-90.91-90.29l.1.05Z"/>
  <path class="cls-1" d="M392.07,539.51l34.1,33.87,51.15-50.8v214.49h45.45v-214.49l51.15,50.8,34.1-33.87-107.96-107.22-108.01,107.22Z"/>
</svg>