<svg width="48" height="48" viewBox="0 0 48 48" fill="none" xmlns="http://www.w3.org/2000/svg">
<path fill-rule="evenodd" clip-rule="evenodd" d="M12 2C6.47715 2 2 6.47715 2 12V36C2 36.6849 2.06886 37.3538 2.20004 38H6V16H42V38H45.8C45.9311 37.3538 46 36.6849 46 36V12C46 6.47715 41.5228 2 36 2H12ZM44.0007 42H36H12H3.99927C5.82368 44.4289 8.72836 46 12 46H36C39.2716 46 42.1763 44.4289 44.0007 42ZM6 12C6 8.68629 8.68629 6 12 6H36C39.3137 6 42 8.68629 42 12H6ZM16 20H10V26H16V20ZM10 30H16V36H10V30ZM21 20H27V26H21V20ZM27 30H21V36H27V30ZM38 20H32V26H38V20ZM32 30H38V36H32V30Z" fill="#FF0037"/>
</svg>
