<?xml version="1.0" encoding="UTF-8"?>
<svg id="Layer_1" xmlns="http://www.w3.org/2000/svg" viewBox="0 0 48 48">
  <defs>
    <style>
      .cls-1 {
        fill: red;
      }
    </style>
  </defs>
  <path class="cls-1" d="M37.55,15.71l-2.86,2.86c.85,1.29,1.31,2.81,1.31,4.39v8c0,4.41-3.59,8-8,8h-8c-4.41,0-8-3.59-8-8v-8c0-4.41,3.59-8,8-8h6.98l-3.09,3.09,2.83,2.83,7.91-7.91-7.91-7.91-2.83,2.83,3.09,3.09h-6.98c-6.62,0-12,5.38-12,12v8c0,6.62,5.38,12,12,12h8c6.62,0,12-5.38,12-12v-8c0-2.66-.87-5.17-2.45-7.25Z"/>
</svg>