<?xml version="1.0" encoding="UTF-8"?>
<svg id="Layer_1" data-name="Layer 1" xmlns="http://www.w3.org/2000/svg" version="1.1" viewBox="0 0 1000 1000">
  <defs>
    <style>
      .cls-1 {
        fill: #ff0037;
        stroke-width: 0px;
      }
    </style>
  </defs>
  <path class="cls-1" d="M321.15,613.7c7.23,3.11,14.63,8.6,22.47,14.41,15.34,11.38,32.72,24.28,55.96,24.28h200.86c23.22,0,40.61-12.9,55.95-24.28,7.83-5.81,15.24-11.3,22.47-14.4,18.71-8.05,30.8-25.95,30.8-45.62v-128.13c0-16.7-6.24-33.04-17.56-46.02-34.85-39.91-44.55-81.45-31.47-134.69,3.25-13.24.92-27.37-6.4-38.78-7.33-11.42-18.71-19.11-32.04-21.65l-20.4-3.88c-23.13-4.41-46.24,8.29-55.12,30.7l-.02.04h0c-5.57,15.47-18.21,21.22-46.64,21.22s-41.07-5.74-46.64-21.21c0-.03-.03-.06-.04-.09l-.18-.49c-8.69-21.88-31.78-34.55-54.93-30.17l-20.4,3.88c-13.33,2.54-24.71,10.23-32.04,21.66-7.33,11.4-9.65,25.53-6.4,38.77,13.09,53.24,3.37,94.78-31.48,134.7-11.32,12.97-17.56,29.31-17.56,46.01v128.13c0,19.66,12.09,37.57,30.8,45.61ZM582.6,239.32c1.89-4.79,6.95-7.61,11.99-6.59l20.4,3.89c3.87.73,5.97,3.23,6.88,4.65,1.67,2.6,2.18,5.74,1.42,8.82-16.17,65.76-3.51,119.51,39.84,169.16,5.21,5.97,8.07,13.33,8.07,20.73v34.01h-151.97v-60.12l63.37-174.54ZM500,285.37c5.98,0,15.28-.04,25.6-1.73l-25.6,70.51-25.61-70.51c10.33,1.69,19.63,1.73,25.61,1.73ZM328.8,439.97c0-7.4,2.87-14.77,8.07-20.73,43.35-49.65,56.01-103.4,39.85-169.16-.76-3.08-.25-6.22,1.42-8.82.91-1.42,3.02-3.92,6.87-4.65l20.39-3.89c.68-.13,1.36-.2,2.03-.2,4.32,0,8.3,2.57,9.77,6.25h0s63.57,175.08,63.57,175.08v60.12h-151.98v-34ZM328.8,512.43h151.98v63.06h38.45v-63.06h151.97v55.67c0,5.19-3.89,8.71-7.54,10.28-11.35,4.89-20.93,11.99-30.18,18.86-12.09,8.97-22.53,16.71-33.05,16.71h-200.86c-10.53,0-20.96-7.74-33.05-16.71-9.26-6.87-18.84-13.97-30.19-18.86-3.65-1.57-7.54-5.09-7.54-10.28v-55.67Z"/>
  <path class="cls-1" d="M644.05,704.57l-24.06,24.52h-120.93v-38.42h-151.09c-31.77,0-57.63,25.85-57.63,57.62s25.86,57.63,57.63,57.63h151.09v-38.42h120.93l24.06,24.52,65.61-21.86v-43.72l-65.61-21.86ZM460.64,767.5h-112.67c-10.59,0-19.21-8.62-19.21-19.21s8.63-19.2,19.21-19.2h112.67v38.42Z"/>
</svg>