<?xml version="1.0" encoding="UTF-8"?>
<svg id="Layer_1" data-name="Layer 1" xmlns="http://www.w3.org/2000/svg" version="1.1" viewBox="0 0 1000 1000">
  <defs>
    <style>
      .cls-1 {
        fill: #141928;
      }

      .cls-1, .cls-2 {
        stroke-width: 0px;
      }

      .cls-2 {
        fill: #fff;
      }
    </style>
  </defs>
  <rect class="cls-1" x="-10" y="-10" width="1020" height="1020"/>
  <g>
    <path class="cls-2" d="M707.78,432.07c-21.24,0-32.41-16.05-50.35-44.41-21.62-34.2-48.54-76.77-112.39-76.77H200v330.93h61.43v-36.36h-25.07v-258.22h240.33v258.22h-36.36v36.36h109.08v-36.36h-36.36v-258.22h31.99c43.83,0,61.35,27.73,81.67,59.83,18.17,28.75,38.78,61.34,81.08,61.34,51.83,0,55.86,46.53,55.86,60.78v76.25h-37.29v36.36h73.65v-112.61c0-58.1-37.07-97.14-92.22-97.14Z"/>
    <path class="cls-2" d="M349.34,558.2c-36.09,0-65.45,29.36-65.45,65.45s29.35,65.45,65.45,65.45,65.45-29.36,65.45-65.45-29.36-65.45-65.45-65.45ZM349.34,652.74c-16.04,0-29.08-13.06-29.08-29.09s13.04-29.09,29.08-29.09,29.09,13.06,29.09,29.09-13.04,29.09-29.09,29.09Z"/>
    <path class="cls-2" d="M640.39,558.2c-36.09,0-65.45,29.36-65.45,65.45s29.35,65.45,65.45,65.45,65.45-29.36,65.45-65.45-29.36-65.45-65.45-65.45ZM640.39,652.74c-16.04,0-29.09-13.06-29.09-29.09s13.05-29.09,29.09-29.09,29.09,13.06,29.09,29.09-13.05,29.09-29.09,29.09Z"/>
  </g>
</svg>